# xmcd
#
# Track frame offsets:
#	150
#	49188
#	63480
#	77088
#	109490
#	140233
#	171960
#	213443
#	238502
#
# Disc length: 3488 seconds
#
# Revision: 1
# Processed by: cddbd v1.5.2PL0 Copyright (c) Steve Scherf et al.
# Submitted via: audiograbber 1.83.01
#
DISCID=870d9e09
DTITLE=Grateful Dead - 82-05-28 Moscone Convention Centre, San Francisco CA
DYEAR=1900
DGENRE=
TTITLE0=Truckin'
TTITLE1=Drums
TTITLE2=Drums Jam
TTITLE3=Going Down The Road Feeling Bad
TTITLE4=Not Fade Away
TTITLE5=Walkin' Blues
TTITLE6=A Mind To Give Up Livin'
TTITLE7=Turn On You Lovelight
TTITLE8=Johnny B Goode
EXTD=
EXTT0=
EXTT1=
EXTT2=
EXTT3=
EXTT4=
EXTT5=
EXTT6=
EXTT7=
EXTT8=
PLAYORDER=
